<?xml version="1.0" standalone="no"?>
<!DOCTYPE svg PUBLIC "-//W3C//DTD SVG 20010904//EN"
 "http://www.w3.org/TR/2001/REC-SVG-20010904/DTD/svg10.dtd">
<svg version="1.0" xmlns="http://www.w3.org/2000/svg"
 width="181.000000pt" height="179.000000pt" viewBox="0 0 181.000000 179.000000"
 preserveAspectRatio="xMidYMid meet">

<g transform="translate(0.000000,179.000000) scale(0.100000,-0.100000)"
fill="#000000" stroke="none">
<path d="M0 895 l0 -895 905 0 905 0 0 895 0 895 -905 0 -905 0 0 -895z m529
212 c47 -16 71 -53 80 -121 4 -31 13 -62 19 -68 18 -18 14 -41 -8 -61 -11 -9
-20 -27 -20 -39 0 -12 -3 -19 -6 -15 -11 11 7 67 22 67 19 0 18 14 -6 60 -11
22 -20 55 -20 75 0 27 -8 44 -30 66 l-29 30 -133 -3 -133 -3 -5 -100 c-4 -85
-6 -94 -14 -62 -13 60 -3 157 19 173 24 18 215 18 264 1z m-94 -59 c-10 -44
-13 -48 -35 -48 -15 0 -19 -9 -22 -42 -3 -40 -5 -43 -32 -43 -24 0 -31 5 -38
30 -11 41 -3 62 18 45 10 -9 12 -16 4 -24 -20 -20 -11 -46 15 -46 23 0 25 3
25 50 0 39 -4 53 -20 62 -23 15 -27 38 -6 38 8 0 16 -10 18 -21 4 -29 33 -48
49 -32 8 8 8 17 0 31 -11 21 -6 32 16 32 11 0 13 -8 8 -32z m75 -2 c-5 -5 -10
-25 -10 -42 0 -25 -7 -38 -29 -53 -25 -18 -30 -19 -41 -6 -14 17 0 26 35 22
18 -2 20 4 21 48 1 68 2 69 19 55 11 -9 13 -16 5 -24z m314 -63 c26 -76 26
-104 2 -70 -8 10 -26 17 -46 17 -20 0 -38 -7 -46 -17 -24 -34 -24 -6 2 70 20
58 30 77 44 77 14 0 24 -19 44 -77z m86 -3 c0 -47 -4 -80 -10 -80 -6 0 -10 33
-10 80 0 47 4 80 10 80 6 0 10 -33 10 -80z m210 65 c0 -9 -9 -15 -25 -15 -24
0 -25 -2 -25 -65 0 -37 -4 -65 -10 -65 -6 0 -10 28 -10 65 0 62 -1 65 -24 65
-26 0 -40 12 -29 24 3 3 33 6 65 6 45 0 58 -3 58 -15z m130 0 c0 -11 -11 -15
-41 -15 -36 0 -40 -2 -37 -22 2 -16 10 -23 28 -25 43 -2 46 -5 10 -12 -26 -4
-36 -12 -38 -28 -3 -21 1 -23 37 -23 23 0 41 -4 41 -10 0 -5 -22 -10 -50 -10
l-50 0 0 80 0 80 50 0 c38 0 50 -4 50 -15z m151 -4 c28 -22 18 -41 -11 -23
-25 15 -63 15 -78 0 -7 -7 -12 -26 -12 -43 0 -17 5 -36 12 -43 15 -15 64 -16
73 -2 8 13 35 13 35 -1 0 -5 -16 -17 -35 -24 -64 -27 -124 21 -111 90 12 61
79 85 127 46z m79 -16 c0 -33 2 -35 35 -35 33 0 35 2 35 35 0 24 5 35 15 35
12 0 15 -16 15 -80 0 -64 -3 -80 -15 -80 -8 0 -14 3 -14 8 1 4 1 19 0 35 -1
24 -5 27 -36 27 -33 0 -35 -2 -35 -35 0 -24 -5 -35 -15 -35 -12 0 -15 16 -15
80 0 64 3 80 15 80 10 0 15 -11 15 -35z m-1024 -146 c10 -17 -13 -36 -27 -22
-12 12 -4 33 11 33 5 0 12 -5 16 -11z m-126 -9 c0 -5 -19 -9 -42 -9 l-43 2 40
7 c22 4 41 8 43 9 1 0 2 -3 2 -9z m43 -20 c-3 -12 -8 -19 -11 -16 -5 6 5 36
12 36 2 0 2 -9 -1 -20z m57 -74 c-7 -7 -13 -7 -20 0 -6 6 -3 10 10 10 13 0 16
-4 10 -10z"/>
<path d="M310 980 c0 -5 5 -10 11 -10 5 0 7 5 4 10 -3 6 -8 10 -11 10 -2 0 -4
-4 -4 -10z"/>
<path d="M490 1060 c0 -5 5 -10 11 -10 5 0 7 5 4 10 -3 6 -8 10 -11 10 -2 0
-4 -4 -4 -10z"/>
<path d="M440 949 c0 -5 5 -7 10 -4 6 3 10 8 10 11 0 2 -4 4 -10 4 -5 0 -10
-5 -10 -11z"/>
<path d="M763 985 c-11 -34 -11 -35 17 -35 28 0 28 1 17 35 -6 19 -13 35 -17
35 -4 0 -11 -16 -17 -35z"/>
<path d="M430 870 c0 -5 5 -10 10 -10 6 0 10 5 10 10 0 6 -4 10 -10 10 -5 0
-10 -4 -10 -10z"/>
</g>
</svg>
